<svg xmlns="http://www.w3.org/2000/svg" width="512" height="512" viewBox="0 0 512 512"><defs><linearGradient id="fabric"><stop stop-color="#73558e"/><stop offset=".28" stop-color="#73558e"/><stop offset=".5" stop-color="#fff" stop-opacity=".14"/><stop offset=".72" stop-color="#73558e"/><stop offset="1" stop-color="#000" stop-opacity=".35"/></linearGradient><clipPath id="shape"><path d="M145 62 L216 35 L256 99 L296 35 L367 62 L447 277 L379 297 L353 167 L369 455 Q256 481 143 455 L159 167 L133 297 L65 277 Z"/></clipPath></defs><path d="M145 62 L216 35 L256 99 L296 35 L367 62 L447 277 L379 297 L353 167 L369 455 Q256 481 143 455 L159 167 L133 297 L65 277 Z" fill="#73558e"/><path d="M145 62 L216 35 L256 99 L296 35 L367 62 L447 277 L379 297 L353 167 L369 455 Q256 481 143 455 L159 167 L133 297 L65 277 Z" fill="url(#fabric)"/><g clip-path="url(#shape)" fill="none" stroke="#fff" stroke-opacity=".1" stroke-width="2"><path d="M178 170 Q192 260 169 447 M334 170 Q319 260 343 447 M201 270 Q213 360 194 650 M313 270 Q298 360 321 650"/></g><path d="M145 62 L216 35 L256 99 L296 35 L367 62 L447 277 L379 297 L353 167 L369 455 Q256 481 143 455 L159 167 L133 297 L65 277 Z" fill="none" stroke="#000" stroke-opacity=".3" stroke-width="3"/><path d="M256 104 V449" stroke="#fff" stroke-opacity=".16" stroke-width="3"/><circle cx="256" cy="135" r="3" fill="#e4d8bd"/><circle cx="256" cy="183" r="3" fill="#e4d8bd"/><circle cx="256" cy="231" r="3" fill="#e4d8bd"/><circle cx="256" cy="279" r="3" fill="#e4d8bd"/><circle cx="256" cy="327" r="3" fill="#e4d8bd"/><circle cx="256" cy="375" r="3" fill="#e4d8bd"/><circle cx="256" cy="423" r="3" fill="#e4d8bd"/></svg>